<svg fill="#000000" xmlns="http://www.w3.org/2000/svg" viewBox="0 0 50 50" width="500px" height="500px"><path d="M 26.5625 1 C 22.621094 1 19.40625 4.140625 19.40625 8 C 19.40625 9.769531 20.035156 10.992188 21.125 12.53125 C 21.894531 13.621094 21.988281 14.34375 21.84375 14.625 C 21.703125 14.894531 21.164063 15.046875 20.46875 15 C 17.996094 14.832031 10.339844 13.941406 10.3125 13.9375 C 10.140625 13.910156 9.964844 13.90625 9.8125 13.90625 C 8.9375 13.90625 7.417969 14.328125 7.09375 17.15625 C 7.007813 17.570313 6.617188 19.808594 6.03125 27.5625 C 5.96875 27.878906 6.015625 28.164063 6.0625 28.40625 C 6.277344 29.503906 7.003906 30.15625 8 30.15625 C 9.03125 30.15625 10.203125 29.460938 11.78125 28.34375 C 13.097656 27.414063 14.191406 27 15.3125 27 C 18.152344 27 20.46875 29.242188 20.46875 32 C 20.46875 34.757813 18.152344 37 15.3125 37 C 13.988281 37 13.078125 36.632813 11.71875 35.5625 C 10.140625 34.320313 8.949219 33.75 8 33.75 C 7.160156 33.75 6.511719 34.210938 6.1875 35 C 6 35.460938 5.964844 36.144531 6.03125 36.53125 C 6.550781 41.972656 6.808594 42.972656 7.03125 43.84375 L 7.125 44.21875 C 7.511719 45.90625 8.707031 47 10.15625 47 L 42.1875 47 C 44.507813 47 46 45.527344 46 43.25 L 46 17.375 C 46 15.660156 45.085938 14.515625 43.25 13.96875 C 43.125 13.929688 42.976563 13.925781 42.84375 13.9375 C 42.769531 13.945313 35.261719 14.691406 32.59375 15 C 32.492188 15.011719 32.378906 15.03125 32.28125 15.03125 C 32.027344 15.03125 31.574219 14.992188 31.40625 14.6875 C 31.222656 14.359375 31.273438 13.605469 31.96875 12.5 L 32.09375 12.3125 C 33.160156 10.617188 33.6875 9.761719 33.6875 8 C 33.6875 4.140625 30.503906 1 26.5625 1 Z"/></svg>